<svg width="76" height="76" viewBox="0 0 76 76" fill="none" xmlns="http://www.w3.org/2000/svg">
<g filter="url(#filter0_d_7273_3080)">
<rect x="7" y="7" width="60" height="60" rx="30" fill="#F8F8F8"/>
<g clip-path="url(#clip0_7273_3080)">
<path d="M25.9789 23.0396C25.6973 23.0829 25.1285 23.2888 24.8144 23.4513C24.3864 23.6788 23.6769 24.3883 23.4494 24.8163C23.3573 24.995 23.2219 25.3092 23.1514 25.5204L23.0269 25.8996V30.4767C23.0269 35.4329 23.0214 35.2975 23.3248 35.98C23.7202 36.8575 24.6302 37.67 25.4752 37.8921L25.7027 37.9517L25.7189 39.0783C25.7352 40.3296 25.7677 40.4433 26.1035 40.6546C26.3202 40.79 26.6777 40.8062 26.8889 40.6925C26.9702 40.6492 27.6094 40.0371 28.3081 39.3383L29.581 38.06H29.8302H30.0848L30.1119 36.7979C30.1335 35.7092 30.1498 35.4871 30.2527 35.1404C30.7781 33.3583 32.0998 32.0367 33.8873 31.495C34.2881 31.3758 34.326 31.3758 38.1556 31.3542L42.0123 31.3379V28.7C42.0123 25.8075 42.0014 25.6883 41.6819 25.0221C41.346 24.3179 40.7664 23.7383 40.0352 23.3754C39.2498 22.9854 39.5748 23.0017 32.4789 23.0125C28.9798 23.0125 26.0548 23.0288 25.9789 23.0396Z" fill="black"/>
<path d="M34.3315 33.0772C33.1074 33.3967 32.1432 34.3772 31.8236 35.6121C31.7261 35.9967 31.7207 36.2459 31.7207 40.4438C31.7207 43.3309 31.7424 44.9776 31.7803 45.1888C31.8074 45.3621 31.9482 45.7413 32.0836 46.023C32.5061 46.895 33.2645 47.545 34.2395 47.8755L34.6186 48L39.3853 48.0163L44.152 48.0325L45.479 49.3488C46.8928 50.7571 46.9524 50.8005 47.3695 50.7084C47.559 50.6705 47.8299 50.4592 47.9328 50.2805C47.9761 50.2046 48.0086 49.7821 48.0249 49.0346L48.052 47.9025L48.2686 47.8375C48.6315 47.7292 49.1353 47.4475 49.482 47.1605C50.094 46.6513 50.5599 45.8117 50.679 45.0155C50.7115 44.7934 50.7332 42.9138 50.7332 40.3896C50.7332 35.6338 50.7386 35.7096 50.3595 34.9459C49.9965 34.2147 49.417 33.6351 48.7128 33.2992C47.9978 32.958 48.3065 32.9688 41.1999 32.9742C35.0032 32.9742 34.7107 32.9797 34.3315 33.0772Z" fill="black"/>
<path d="M41.6362 41.1736C41.5905 41.1829 41.5494 41.2077 41.52 41.2438C41.4905 41.2799 41.4744 41.3251 41.4744 41.3717V41.8067C41.4744 41.8872 41.4424 41.9643 41.3855 42.0212C41.3287 42.0781 41.2515 42.11 41.1711 42.11C41.0906 42.11 41.0135 42.0781 40.9566 42.0212C40.8997 41.9643 40.8677 41.8872 40.8677 41.8067V40.9327C40.8677 40.856 40.8969 40.7821 40.9492 40.7259C41.0016 40.6698 41.0733 40.6356 41.1498 40.6302C41.5094 40.6051 42.0382 40.4826 42.4673 40.209C42.8861 39.9416 43.1933 39.5447 43.1933 38.9443C43.1933 38.3659 42.9787 37.9649 42.6671 37.699C42.348 37.4266 41.9039 37.2774 41.4271 37.2588C40.44 37.2202 39.5201 37.7259 39.3438 38.5134C39.3262 38.5919 39.2782 38.6602 39.2103 38.7033C39.1423 38.7464 39.06 38.7607 38.9815 38.7432C38.903 38.7256 38.8347 38.6776 38.7916 38.6096C38.7485 38.5417 38.7341 38.4594 38.7517 38.3809C38.8864 37.7795 39.2748 37.3393 39.7778 37.0511C40.2833 36.7613 40.8962 36.6309 41.4509 36.6527C42.0309 36.6754 42.6157 36.8576 43.061 37.2376C43.514 37.6242 43.7999 38.1969 43.7999 38.9443C43.7999 39.8013 43.3409 40.3712 42.7937 40.7204C42.4232 40.9568 42.0048 41.0987 41.6362 41.1736ZM40.6655 43.6267C40.6655 43.4658 40.7294 43.3115 40.8432 43.1977C40.957 43.0839 41.1113 43.02 41.2722 43.02C41.4331 43.02 41.5874 43.0839 41.7011 43.1977C41.8149 43.3115 41.8788 43.4658 41.8788 43.6267C41.8788 43.7876 41.8149 43.9419 41.7011 44.0557C41.5874 44.1694 41.4331 44.2333 41.2722 44.2333C41.1113 44.2333 40.957 44.1694 40.8432 44.0557C40.7294 43.9419 40.6655 43.7876 40.6655 43.6267Z" fill="#F8F8F8" stroke="#F8F8F8" stroke-width="0.404439" stroke-linecap="round" stroke-linejoin="round"/>
</g>
</g>
<defs>
<filter id="filter0_d_7273_3080" x="0" y="0" width="76" height="76" filterUnits="userSpaceOnUse" color-interpolation-filters="sRGB">
<feFlood flood-opacity="0" result="BackgroundImageFix"/>
<feColorMatrix in="SourceAlpha" type="matrix" values="0 0 0 0 0 0 0 0 0 0 0 0 0 0 0 0 0 0 127 0" result="hardAlpha"/>
<feOffset dx="1" dy="1"/>
<feGaussianBlur stdDeviation="4"/>
<feComposite in2="hardAlpha" operator="out"/>
<feColorMatrix type="matrix" values="0 0 0 0 0 0 0 0 0 0 0 0 0 0 0 0 0 0 0.5 0"/>
<feBlend mode="normal" in2="BackgroundImageFix" result="effect1_dropShadow_7273_3080"/>
<feBlend mode="normal" in="SourceGraphic" in2="effect1_dropShadow_7273_3080" result="shape"/>
</filter>
<clipPath id="clip0_7273_3080">
<rect width="27.7333" height="27.7333" fill="white" transform="translate(23 23)"/>
</clipPath>
</defs>
</svg>
